<svg xmlns="http://www.w3.org/2000/svg" height="512" width="512"><path d="M94.07 92.535v85.772c5.493.912 10.978 1.915 16.346 3.062 1.052-16.604 6.31-33.717 19.52-47.064 14.006-14.15 36.123-23.2 68.34-24.377l-1.838-17.393zm290.104 24.387l-17.938 1.496 3.45 41.416 17.96-1.21zm-184 10.963c-29.84.853-47.228 8.76-57.444 19.08-10.324 10.43-14.198 24.227-14.498 39.074 16.892 7.2 32.876 13.728 34.407 32.443l48.607 14.243zm64.564 15.85v50.268h16.135v-50.268zm124.407 32.828l-17.963 1.207 3.1 37.336L353.2 227.47l2.43 19.437L375.952 235l6.37 76.422c4.133-8.828 9.474-17.36 15.95-25.34zM56.886 195.3L26.82 270.467l15.672 26.12 27.926-49.024 43.803.826 163.758 49.17 27.6 32.978h42.378l-14.875-119-106.627-6.272 3.526 33.37 58.347 17.397-5.142 17.248-140.537-41.912c3.413-15.453 1.87-18.897-11.332-24.932-24.05-10.298-47.517-9.563-74.42-11.146zm23.88 70.46l-57.8 101.474 32.762 48.635h213.005l43.418-49.4-44.517-53.21-156.225-46.9zm24.366 15.08c14.29 0 26.066 11.777 26.066 26.066s-11.777 26.067-26.066 26.067-26.065-11.778-26.065-26.067 11.776-26.066 26.065-26.066zm311.5 11.56c-27.812 30.32-34.254 70.426-16.715 98.655 7.53 12.117 27.67 20.92 51.04 25.056 12.635 2.236 25.873 3.17 38.076 3.354-30.2-21.402-48.9-41.992-59.6-63.692-10.052-20.402-12.867-41.244-12.8-63.373zm-311.5 6.44c-4.562 0-8.067 3.504-8.067 8.066s3.505 8.07 8.067 8.07 8.068-3.507 8.068-8.07-3.506-8.066-8.068-8.066zm130.74 25.63c21.985 0 40 18.016 40 40s-18.015 40-40 40-40-18.015-40-40 18.015-40 40-40zm-153.9 11.26c17.843 0 32.5 14.657 32.5 32.5s-14.655 32.5-32.498 32.5-32.5-14.658-32.5-32.5 14.655-32.5 32.498-32.5zm153.9 6.74c-12.258 0-22.002 9.744-22.002 22.002s9.744 22 22.002 22 22.002-9.742 22.002-22-9.744-22.002-22.002-22.002zm84.752 6.066l15.236 18.21-13.173 14.992h53.322c-3.336-10.645-4.5-21.877-3.65-33.203zm-238.662 5.192c-8.116 0-14.5 6.386-14.5 14.502s6.386 14.5 14.502 14.5 14.5-6.386 14.5-14.5-6.386-14.502-14.502-14.502z" fill="#fff"/></svg>