<svg xmlns="http://www.w3.org/2000/svg" height="512" width="512"><path d="M47 145c-10 0-23 12.4-23 24.9v134.3l52.5 7.5C84.97 297 100.9 287 119 287c21 0 39 13.3 45.9 32h188.2c6.9-18.7 24.9-32 45.9-32s39 13.3 45.9 32H488v-77.2L456.5 145zm-9 14h405.6l25.6 82H296v64h-98v-64H38zm18 18v46h62v-46zm80 0v46h62v-46zm80 0v110h22V177zm40 0v110h22V177zm40 0v46h62v-46zm86.6 0v46h62.2l-14.4-46zM119 305a30.9 30.9 0 1 0 0 62 30.9 30.9 0 1 0 0-62zm280 0a30.9 30.9 0 1 0 0 62 30.9 30.9 0 1 0 0-62zm-280 23a8 8 0 1 1 0 16 8 8 0 1 1 0-16zm280 0a8 8 0 1 1 0 16 8 8 0 1 1 0-16z" fill="#fff"/></svg>