<svg xmlns="http://www.w3.org/2000/svg" height="512" width="512"><path d="M278.814 35.137c-3.87 29.372 2.2 62.917 23.563 91.277 24.7 32.807 70.077 59.506 146.5 64.467-10.864-53.306-31.943-84.387-60.87-107.415-23.07-18.367-51.784-31.734-84.02-45.96 29.838 36.785 60.63 73.392 105.382 92.694l-7.13 16.527c-55.713-24.03-90.292-70.698-123.416-111.6zM259.2 46.8c-42.613 88.792-88.927 175.7-147.975 257.08-1.967-1.6-3.77-3.225-5.454-4.725-4.98-4.436-9.1-8-15.42-10.407-2.338-.896-4.675-1.33-7.02-1.326-7.035.01-14.15 3.948-21.65 11.1-10 9.553-18.946 24.412-23.893 37.62-14.318 38.227 4.955 80.574 43.186 94.9s80.582-4.952 94.9-43.178c4.94-13.187 8.024-30.42 6.8-44.243-.6-6.9-2.283-12.897-4.786-17.208s-5.532-7.033-10.2-8.627c-4.466-1.52-10.517-1.707-17.765-1.85-6.83-.133-14.742-.297-22.97-3.064 53.342-73.767 96.236-151.695 135.23-231-7.14 56.593-14.18 114.543-29.9 170.3-7.03-.83-12.847-3.195-17.887-5.144-6.222-2.407-11.337-4.285-18.094-4.336-10.013-.077-17.4 6.766-23.415 19.216-5.06 10.48-8.094 24.2-8.93 36.708 3.1.388 6.3 1.027 9.544 2.132 8.872 3.023 15.68 9.234 19.973 16.627s6.374 15.88 7.15 24.662c.775 8.75.267 17.862-1.156 26.727 11.08 6.646 24.062 10.47 37.967 10.47 40.825 0 73.725-32.898 73.725-73.718 0-14.08-3.156-31.3-9.15-43.817-2.997-6.257-6.663-11.276-10.52-14.435s-7.648-4.648-12.6-4.5c-4.713.142-10.445 2.1-17.282 4.498-3.142 1.107-6.54 2.286-10.188 3.25 11.84-43.77 18.6-88.247 24.276-131.803-12.384-23.256-17.284-48.3-16.486-71.91zm46.732 110.605l4.945 16.554c20.44 67.845 45.324 144.313 68.207 195.255-4.537.18-8.715-.204-12.46-.52-6.65-.564-12.083-.93-18.583.917-9.63 2.738-14.8 11.38-17.075 25.017s-.524 30.894 3.437 44.43c11.464 39.178 52.28 61.515 91.463 50.052s61.52-52.276 50.057-91.454c-3.955-13.514-11.82-29.155-21.086-39.484-4.634-5.164-9.564-8.953-14.152-10.902-2.295-.975-4.456-1.554-6.63-1.698s-4.368.15-6.718.915c-4.485 1.458-9.44 4.937-15.324 9.168-4.337 3.118-9.218 6.6-15.076 9.3-21.5-47.232-46.358-122.123-66.762-189.375-9.007-5.556-17.075-11.646-24.242-18.168z" fill="#fff"/></svg>