<svg xmlns="http://www.w3.org/2000/svg" height="512" width="512"><path d="M346.647 22.946c-19.8.144-40.982 6.645-48.194 25.36A39.33 20.719 0 0 0 279.4 66.033a39.33 20.719 0 0 0 36.664 20.649c17.706 4.338 42.703-3.822 56.312-25.166 22.5 9.72 50.156 21.74 56.615 47.18 13.014 51.25-19.25 147.44-38.24 153.953-54.464 18.68-114.53 21.17-152.465 45.7-43.773 28.295-72.155 82.248-111.75 92.456-32.22 8.307-96.032-7.227-103.9 18-1.202 8.7 6.012 16.63 25.914.074 28.68 7.782 106.2 35.345 179.18-23.144a169.515 169.515 0 0 0 14.203 7.9c.994 27.816 8.107 57.606 12.525 85.422h46.705l-4.916-44.467c4.988-16.298 11.013-25.643 14.697-43.342l17.664 3.46c-2.01 10.255-3.905 12.287-7.558 22.088 10.685.506 22.867-.07 33.894-1.025-7.715-17.77-11.885-41.54-15.886-57.37l17.45-4.4c5.517 21.825 14.342 52.147 17.983 60.296 3.248 7.27 11.303 64.77 11.303 64.77h37.223l7.515-85.74c28.595-16.92 38.1-37.13 43.64-60.215 19.358-80.647 23.886-168.75-7.448-243.842-19.615-47.005-57.366-60.762-91.875-72-7.463-2.65-17.643-4.38-28.21-4.304zm124.4 367.332c-6.21 7.738-13.93 15.286-23.4 22.273l-5.88 76.506h32.767l-3.496-98.78zM356.46 443.266c-11.83 1.167-25.7 1.252-39.832.293l4.838 45.498h41.787z" fill="#fff"/></svg>