<svg xmlns="http://www.w3.org/2000/svg" height="512" width="512"><path d="M277.28 18.094c2.42 33.67-.094 66.692-8.967 99.187-.552-2.168-1.15-4.308-1.813-6.436-9.355-30.034-29.53-55.765-61.313-75.313-21.642-16.548-60.26-23.695-113.437-8.343C94 49.45 137.202 52.01 151.906 54.033 123.012 60.4 91.1 85.214 48.53 90.25c39.324 20.744 92.66 4.396 129.064-11.688-1.873 17.715-13.7 29.033-24.53 59.594 47.832-11.062 70.85-37.418 72.155-62.562 11.173 12.212 18.763 25.8 23.436 40.812 3.505 11.25 5.34 23.392 5.594 36.344 3.873 4.97 6.9 10.635 8.813 16.78 5.315-3 11.198-5.134 17.437-6.155 6.107-14.92 12.983-27.1 20.53-36.156 14.88-17.87 30.967-24.548 53.5-20.2l.033-.155c32.603 22.698 24.114 60.97 12.25 89.375 21.587-6.676 33.4-19.928 33.437-42.97 17.947 11.77 25.423 31.093 30.563 52.064 7.22-21.503 5.772-44.784-12.782-64.844l43.345 16.5c-27.924-33.363-54.318-68.923-105.28-68.688-26.457-4.45-49.9 4.967-67.376 24.563 7.4-31.25 9.436-62.938 7.28-94.78h-18.72zM212.53 150.97c-19.002 0-34.218 15.184-34.218 34.186 0 6.8 1.963 13.127 5.344 18.438 3.66-.807 7.452-1.25 11.344-1.25 13.056 0 25.03 4.807 34.28 12.72 10.44-5.836 17.44-17.008 17.44-29.908a34.03 34.03 0 0 0-34.19-34.187zm-58.405 18.686c-19.003 0-34.22 15.185-34.22 34.188 0 15.977 10.75 29.295 25.47 33.125 4.004-10.795 11.44-19.943 20.97-26.126-4.267-7.615-6.72-16.384-6.72-25.688 0-5.082.74-9.997 2.094-14.656-2.44-.544-4.984-.844-7.595-.844zm134.906 11.688c-19.002 0-34.217 15.185-34.217 34.187 0 3.495.5 6.866 1.468 10.032a52.62 52.62 0 0 1 12.876-1.593c16.203 0 30.745 7.38 40.47 18.936 8.274-6.225 13.593-16.133 13.593-27.375a34.03 34.03 0 0 0-34.19-34.186zM195 221.03c-19.003 0-34.22 15.218-34.22 34.22A34.09 34.09 0 0 0 195 289.47a34.09 34.09 0 0 0 34.22-34.22c0-19.002-15.217-34.22-34.22-34.22zm147.156 7.032c-.594 0-1.195.002-1.78.032-3.13 12.737-10.908 23.675-21.407 30.937 2 5.575 3.092 11.566 3.092 17.814 0 4.15-.523 8.182-1.437 12.062 5.863 4.74 13.34 7.563 21.53 7.563 19.004 0 34.22-15.218 34.22-34.22s-15.216-34.188-34.22-34.188zm-73 14.594c-8.17 0-15.644 2.82-21.5 7.53.16 1.673.25 3.352.25 5.064 0 12.203-4.18 23.462-11.187 32.438a34 34 0 0 0 32.436 23.375c19.003 0 34.22-15.217 34.22-34.22s-15.217-34.187-34.22-34.187zm-144.25 11.094c-19.003 0-34.187 15.216-34.187 34.22 0 11.956 6.024 22.397 15.218 28.5 4.38-20.14 20.305-36.045 40.437-40.44-2.357-5.47-3.817-11.402-4.188-17.624-5.063-2.95-10.953-4.656-17.28-4.656zm32.72 39.72c-19.004 0-34.22 15.184-34.22 34.186s15.217 34.22 34.22 34.22 34.186-15.217 34.186-34.22c0-7.704-2.484-14.777-6.718-20.47-10.17-1.946-19.338-6.793-26.563-13.686-.3-.008-.603-.03-.905-.03zM222 300.686a52.46 52.46 0 0 1-15.78 6.25c2.737 6.375 4.28 13.366 4.28 20.72a52.55 52.55 0 0 1-8.938 29.343c6.227 6.618 15.1 10.72 24.97 10.72 19.002 0 34.218-15.218 34.218-34.22 0-1.527-.122-3.028-.313-4.5-16.8-2.815-30.95-13.604-38.437-28.313zm91.03 5.657c-7.686 11.375-19.688 19.607-33.592 22.375 5.016 12.622 17.287 21.467 31.78 21.467 19.003 0 34.22-15.185 34.22-34.187 0-.313-.024-.627-.032-.938-1.075.066-2.16.094-3.25.094-10.745 0-20.76-3.25-29.125-8.812zm-38 48.125c-4.6 10.558-12.534 19.36-22.467 25.03 3.98 14.483 17.154 25 32.968 25a34.03 34.03 0 0 0 34.19-34.188 35.64 35.64 0 0 0-.064-2.125c-2.75.445-5.567.688-8.437.688-13.967 0-26.708-5.495-36.2-14.406zm-86.3 15.936a52.63 52.63 0 0 1-19.626 8.875c-.816 2.942-1.28 6.036-1.28 9.25A34.03 34.03 0 0 0 202 422.719c19.002 0 34.22-15.186 34.22-34.2a35.45 35.45 0 0 0-.126-3c-3.103.575-6.3.876-9.563.876-14.775 0-28.2-6.147-37.8-16zm-61.282.625c-2.582 4.822-4.032 10.332-4.032 16.22 0 19.002 15.217 34.188 34.22 34.188a35.18 35.18 0 0 0 2.936-.125c-7.16-9.024-11.437-20.424-11.437-32.782 0-2.914.26-5.77.72-8.56-8.234-1.228-15.854-4.355-22.407-8.94zm122.968 38.72c-1.208 2.733-2.647 5.342-4.28 7.813 10.2 8.923 16.945 21.68 17.968 35.968 17.506-.66 31.472-14.26 32.75-31.592-3.65.802-7.43 1.25-11.313 1.25-13.452 0-25.763-5.1-35.124-13.438zm-17.094 21.313c-8.777 6.5-19.612 10.343-31.312 10.343a52.35 52.35 0 0 1-18.844-3.5c-3.78 5.503-6 12.167-6 19.406 0 19.003 15.185 34.22 34.188 34.22s34.22-15.217 34.22-34.22c0-10.6-4.755-19.998-12.25-26.25z" fill="#fff"/></svg>