<svg xmlns="http://www.w3.org/2000/svg" height="512" width="512"><path d="M253.125 18.563c-131.53 0-238.375 106.813-238.375 238.343S121.596 495.25 253.125 495.25 491.47 388.435 491.47 256.906 384.653 18.562 253.124 18.562zm-23.938 52.093c40.517 0 77.988 12.904 108.532 34.813-5.597-.624-11.302-.97-17.064-.97-84.157 0-152.375 68.25-152.375 152.406S236.5 409.28 320.656 409.28a154.34 154.34 0 0 0 17.063-.936c-30.545 21.9-68.016 34.812-108.533 34.812-102.98 0-186.28-83.272-186.28-186.25s83.3-186.25 186.28-186.25z" fill="#fff"/></svg>