<svg xmlns="http://www.w3.org/2000/svg" height="512" width="512"><path d="M16.125 18.406v29.22a305.84 305.84 0 0 1 28-1.907l5.78-.064c117.716-.37 236.367 65.873 290.626 176.844l37.533-33.438C348.267 118.008 299.1 59.125 238.375 18.406H16.125zm33.75 45.97c-11.3.025-22.567.702-33.75 2.06v69.595c15.867-2.703 31.852-4.047 47.844-4.03l8.218.125c83.442 2.492 165.578 41.408 223.5 111.344l15.687 5 14.656-13.032C276.274 128.632 162.13 64.118 49.876 64.375zm14.47 86.3A264.83 264.83 0 0 0 16.125 155v81.03c22.83-7.462 46.084-11.224 69.125-11.53l4.563-.03c44.63.283 88.253 13.427 126.093 37.25l-14-31.876-8.28-18.938 66.186 21.125c-54.242-52.944-124.738-81.174-195.468-81.343zM385.25 207.72l-69.406 61.78-5.063-1.594-83.436-26.625 37.31 85.094-3.125 4.344-51.06 71.124 92.436-9.188 3.156 4.313 51.875 70.56 19.813-90.78 5.063-1.656 83.156-27.53-80.22-46.94-.5-92.905zM86.72 243.124c-23.547.212-47.34 4.323-70.595 12.656v93.44c66.747-35.676 144.158-32.8 207.813 1.8l19.343-26.905-12.686-28.906c-40.696-33.923-91.642-52.566-143.875-52.095zm229.8 199.626l.283.5.062-.03-.344-.47z" fill="#fff"/></svg>