<svg xmlns="http://www.w3.org/2000/svg" height="512" width="512"><path d="M173.844 15.563v.03l52.22 192.157c7.035-3.16 14.752-6.03 22.686-8.406 8.894-2.663 18.006-4.683 26.72-5.72L227 15.565l-53.156-.002zm240.03 183.968c-13.045 15.4-48.86 31.746-91.874 45.845 1.64 16.418 2.707 35.075 2.72 53.344.01 18.658-1.105 36.594-4.25 51.155-1.574 7.28-3.6 13.75-6.75 19.28s-7.815 10.6-14.564 12.376-13.316-.275-18.812-3.5-10.55-7.8-15.594-13.3c-10.087-11.045-20.125-26.058-29.563-42.22-9.477-16.23-18.235-33.37-25.218-48.688-45.532 8.43-85.193 11.7-102.126 6.313 27.6 101.65 71.632 175.738 120.312 216.094H388.75c47.247-52.587 62.203-160.075 25.125-296.7zM286.03 211.595a55.77 55.77 0 0 0-2.31.062c-8.694.44-19.32 2.508-29.626 5.594s-20.344 7.183-28.063 11.313c-5.254 2.8-8.667 5.522-10.905 7.53 5.213 15.886 19.636 48.602 36.22 77 9.044 15.492 18.7 29.674 27.218 39 4.258 4.664 8.254 8.075 11.218 9.813s4.307 1.64 4.595 1.563 1.42-.62 3.094-3.564 3.424-7.837 4.75-13.97c2.648-12.262 3.823-29.34 3.8-47.217-.02-33.398-4.27-69.712-7.842-85.564-2.73-.895-6.933-1.6-12.157-1.562z" fill="#fff"/></svg>