<svg xmlns="http://www.w3.org/2000/svg" height="512" width="512"><path d="M197.48 59.813c-5.975-10.707-12.128-21.38-23.147-31.17-3.266 14.104-12.787 25.802-21.957 37.634-3.5-14.265-20.643-19.598-35.787-26.244-1.483 11.404-2.6 22.726-8.158 35.035-7.585-6.947-20.8-9.806-33.328-13.15 3.502 14.433 2.293 29.338 1.242 44.227l-40.453 3.42 19.314 36.36-38.38 22.78 30.363 22.19-30.04 25.538 30.627 15.26-28.494 24.224L44.717 268.6l-16.045 22.228c-3.382-.12-6.748-.194-10.088-.207L18 494h132.2c22.992-13.75 43.804-28.112 59.32-44.172-32.83-3.25-51.774-9.92-62.783-21.164-24.535-22.66 9.547-47.633 2.143-67.29-4.652-6.38-11.538-7.695-18.635-9.184-36.095 20.677-56.727 35.6-86.78 56.21-1.207-27.584 3.857-56.846 13.14-78.724-7.633-8.9-13.152-19.953-17.084-32.137l20.54 3.447c1.7 3.87 3.584 7.442 5.69 10.7 6.396-8.455 13.32-25.704 23.383-24.194 24.704 3.716 43.28 22.5 50.105 48.262 10.708 2.88 22.655 10.32 26.33 18.88 7.813 23.01-19.866 46.884-5.966 61.445 7.712 7.877 34.52 17.07 94.798 18.102 3.194-.38 4.02.475 6.166 2.592 21.5 17.817 42.34 34.325 67.122 42.613 1.716-24.108-23.276-41.757-40.7-52.39l9.254-15.437c26.32 17.04 56.8 46.733 56.515 79.483 32.58-21.474 32.567-61.684 29.476-92.858a42.244 42.244 0 0 1-14.202-2.53c-9.572-3.47-17.504-9.83-23.28-17.187s-9.65-15.737-9.603-24.645c0-.037.005-.075.006-.113-1.2-4.784-1.603-9.773-1.4-14.773-3.96-6.207-8.067-13.32-10.633-21.903-49.9 3.927-65.214-41.983-58.28-66.865-41.662-13.957-69.213-54.133-68.2-95.1l17.986.7c2.176 31.16 16.438 59.117 42.582 72.44-34.508-45.38-6.576-103.394-13.322-147.237-3.146-20.442-7.997-42.573-15.65-58.798zm-22.807 21.335c16.79-.124 34.104 3.915 50.77 12.735l-8.418 15.9C179.223 89.79 139.937 98.52 113.432 126.1s-39.95 74.495-21.287 132.418l-17.133 5.52c-20.325-63.088-6.065-117.64 25.443-150.413 19.693-20.483 46.23-32.26 74.217-32.467zm279.623 26.8c-63.49 18.76-116.15 42.12-157.936 101.646 34.835-33.685 71.42-52.248 110.155-62.916 14.047-12.303 29.838-24.6 47.78-38.73zm35.478 43.632c-77.6 5.823-141.897 20.993-203.654 95.662-16.245 26.922 4.404 50.69 28.852 52.434 6.183.22 8.903-1.557 9.54-2.777 26.375-50.656 51.76-79.157 83.547-101.057 23.068-15.893 49.298-28.427 81.716-44.262zM91.353 306.408c-14.442 18.208-24.89 43.897-28.546 67.006 18.525-12.726 34.965-23.67 58-36.46-5.15-16.35-15.47-26.778-29.453-30.547zm181.772 19.108l-14.082 11.2c-5.925-8.305-14.206-9.836-21.555-7.585l-5.412-17.168c16.26-5.246 31.306 1.66 41.05 13.543zm181.977-6.428c-28.968 16.53-59.9 32.96-99.637 30.66-6.28 18.74 20.99 35.328 36.492 28.28 26.9-15.945 52.604-31.054 63.145-58.94zm-235.498 5.488c14.446 34.744 37.707 36.327 58.095 13.608l13.5 11.918c-28.908 38.08-82.138 14.665-89.394-22.914zm91.44 55.133l15.628 8.934c-3.773 6.087 6.303 9.457 10.334 10.943l-6.094 16.937c-17.03-6.242-28.6-20.687-19.867-36.814z" fill="#fff"/></svg>