<svg xmlns="http://www.w3.org/2000/svg" height="512" width="512"><path d="M21.357 56.13c2.557 128.54 77.143 232.496 173.868 262.3-9.76-16.326-11.8-20.065-13.545-35.1 5.57 11.15 17.776 28.634 47.168 46.123-15.46 6.144-25.038 19.847-27.39 42.843-5.396 2.38-12.07-.66-15.805 8.78-7.575 18.1 8.4 33.48 12.643 50.216 14.08 6.437 13.144 15.724 16.855 24.6 12.993-5.17 25.986-2.705 38.98 0l-.7-14.416-21.774-3.162 3.865-8.777c-11.488-4.736-17.746-12.8-24.23-20.72l1.053-27.392c30.453-7.134 51.72-27.902 61.98-39.68 2.98-3.422-1.105-10.442-5.443-16.504 18.625-19.95 15.037-40.943 13.205-61.237 8.93 13.296 13.89 34.978 4.568 63.145 28.73-3.42 54.964-12.9 75.242-28.006-4.61-12.067-5.113-24.247-1.486-30.904 4.372 12.7 17.02 31.785 31.07 34.88 20.108 4.428 37.03-2.155 54.78-5.97-6.746 14.86-7.405 29.553-8.077 43.545 12.925-15.825 30.205-30.033 30.552-50.217.134-7.764-31.16-11.645-60.05-5.267-2.105-10.317-4.33-20.432-10.868-30.194 5.292-13.485 6.256-28.722 5.196-45.642-12.62-6.784-17.92-19.886-20.77-33.932 24.322 20.15 58.17 30.88 88.535 33.02.195-5.546 2.602-5.824-2.363-11.37-21.92-11.355-47.134-27.842-46.555-41.77 20.46.285 48.265 3.052 68.782 8.194-.673-7.697-.04-15.732-6.2-23.092-4.02-4.797-33.602-12.747-50.404-19.12-.627-3.643-2.934-12.138-9.437-12.167-36.318-.16-70.23 15.264-76.975 35.012-3.305 9.675-.1 41.943-.027 62.914-44.004-6.438-105.465 11.322-149.11 32.7C55.353 200.283 52.28 140.525 21.357 56.128zm392.815 64.396c5.525.056 8.536 6.67 7.517 10.3-.714 2.544-18.077-1.213-17.42-4.858.6-3.267 2.83-5.512 9.903-5.442zm56.062 198.188l-8.136 12c7.284 4.115 4.85 8.8 9.26 18.322 2.964-10.77 4.898-19.553-1.125-30.322zM242.24 401.98c-4.287.01-11.218 1.745-12.933 9.008l12.166 9.81c-2.176-13.427 14.83-6.788 27.318-2.36-3.928-6.695-19.406-16.47-26.55-16.457zm22.947 40.916l.995 12.975h22.595l-23.6-12.975z" fill="#fff"/></svg>